<mxfile host="app.diagrams.net" modified="2020-10-01T06:18:48.960Z" agent="5.0 (Windows NT 10.0; Win64; x64) AppleWebKit/537.36 (KHTML, like Gecko) Chrome/85.0.4183.121 Safari/537.36" etag="NVJqR71zFzFlFUpET98C" version="13.7.7" type="github" pages="3">
  <diagram id="TP7DXvVOR5oQCOvxH9Ez" name="Page-1">
    <mxGraphModel dx="1422" dy="762" grid="1" gridSize="10" guides="1" tooltips="1" connect="1" arrows="1" fold="1" page="1" pageScale="1" pageWidth="827" pageHeight="1169" math="0" shadow="0">
      <root>
        <mxCell id="0" />
        <mxCell id="1" parent="0" />
        <mxCell id="tVBxDaiVkqGAWi1-sCXr-1" value="" style="whiteSpace=wrap;html=1;aspect=fixed;" vertex="1" parent="1">
          <mxGeometry x="160" y="150" width="320" height="320" as="geometry" />
        </mxCell>
        <mxCell id="tVBxDaiVkqGAWi1-sCXr-2" value="" style="whiteSpace=wrap;html=1;aspect=fixed;" vertex="1" parent="1">
          <mxGeometry x="170" y="160" width="150" height="150" as="geometry" />
        </mxCell>
        <mxCell id="tVBxDaiVkqGAWi1-sCXr-3" value="&lt;font style=&quot;font-size: 30px&quot;&gt;Imagen&amp;nbsp;&lt;/font&gt;" style="text;html=1;strokeColor=none;fillColor=none;align=center;verticalAlign=middle;whiteSpace=wrap;rounded=0;" vertex="1" parent="1">
          <mxGeometry x="180" y="205" width="100" height="55" as="geometry" />
        </mxCell>
        <mxCell id="tVBxDaiVkqGAWi1-sCXr-4" value="&lt;b&gt;&lt;font style=&quot;font-size: 25px&quot;&gt;producto y su&amp;nbsp;cantidad de litros&lt;/font&gt;&lt;/b&gt;" style="text;html=1;strokeColor=none;fillColor=none;align=center;verticalAlign=middle;whiteSpace=wrap;rounded=0;" vertex="1" parent="1">
          <mxGeometry x="325" y="177.5" width="145" height="110" as="geometry" />
        </mxCell>
        <mxCell id="tVBxDaiVkqGAWi1-sCXr-5" value="&lt;font style=&quot;font-size: 25px&quot;&gt;$precio&lt;/font&gt;" style="text;html=1;strokeColor=none;fillColor=none;align=center;verticalAlign=middle;whiteSpace=wrap;rounded=0;fontSize=21;" vertex="1" parent="1">
          <mxGeometry x="340" y="310" width="130" height="60" as="geometry" />
        </mxCell>
        <mxCell id="tVBxDaiVkqGAWi1-sCXr-6" value="&lt;b&gt;&lt;font style=&quot;font-size: 25px&quot;&gt;carrito&lt;/font&gt;&lt;/b&gt;" style="text;html=1;strokeColor=#6c8ebf;align=center;verticalAlign=middle;whiteSpace=wrap;rounded=0;fontSize=21;fillColor=#007FFF;" vertex="1" parent="1">
          <mxGeometry x="167.5" y="410" width="150" height="50" as="geometry" />
        </mxCell>
        <mxCell id="tVBxDaiVkqGAWi1-sCXr-7" value="&lt;font style=&quot;font-size: 9px&quot;&gt;Graduación alcohólica&amp;nbsp;&lt;br&gt;Características del producto&lt;br&gt;Como es el proceso de creación&amp;nbsp;&lt;/font&gt;" style="text;html=1;strokeColor=none;fillColor=none;align=center;verticalAlign=middle;whiteSpace=wrap;rounded=0;fontSize=21;" vertex="1" parent="1">
          <mxGeometry x="307.5" y="380" width="172.5" height="60" as="geometry" />
        </mxCell>
        <mxCell id="tVBxDaiVkqGAWi1-sCXr-8" value="&lt;b&gt;&lt;font style=&quot;font-size: 25px&quot;&gt;Comprar&amp;nbsp;&lt;/font&gt;&lt;/b&gt;" style="text;html=1;align=center;verticalAlign=middle;whiteSpace=wrap;rounded=0;fontSize=21;strokeColor=#5E7BA6;fillColor=#007FFF;" vertex="1" parent="1">
          <mxGeometry x="167.5" y="340" width="150" height="50" as="geometry" />
        </mxCell>
      </root>
    </mxGraphModel>
  </diagram>
  <diagram id="SUwkv_fsYtDImg-rFRqG" name="Page-2">
    <mxGraphModel dx="1422" dy="762" grid="1" gridSize="10" guides="1" tooltips="1" connect="1" arrows="1" fold="1" page="1" pageScale="1" pageWidth="827" pageHeight="1169" math="0" shadow="0">
      <root>
        <mxCell id="GbqJbgyvQAJeLsw16OdP-0" />
        <mxCell id="GbqJbgyvQAJeLsw16OdP-1" parent="GbqJbgyvQAJeLsw16OdP-0" />
        <mxCell id="GbqJbgyvQAJeLsw16OdP-2" value="" style="whiteSpace=wrap;html=1;aspect=fixed;" vertex="1" parent="GbqJbgyvQAJeLsw16OdP-1">
          <mxGeometry x="240" y="120" width="320" height="320" as="geometry" />
        </mxCell>
        <mxCell id="GbqJbgyvQAJeLsw16OdP-3" value="" style="whiteSpace=wrap;html=1;aspect=fixed;" vertex="1" parent="GbqJbgyvQAJeLsw16OdP-1">
          <mxGeometry x="250" y="160" width="130" height="130" as="geometry" />
        </mxCell>
        <mxCell id="GbqJbgyvQAJeLsw16OdP-4" value="&lt;font style=&quot;font-size: 20px&quot;&gt;Imagen&amp;nbsp;&lt;/font&gt;" style="text;html=1;strokeColor=none;fillColor=none;align=center;verticalAlign=middle;whiteSpace=wrap;rounded=0;" vertex="1" parent="GbqJbgyvQAJeLsw16OdP-1">
          <mxGeometry x="260" y="200" width="90" height="40" as="geometry" />
        </mxCell>
        <mxCell id="GbqJbgyvQAJeLsw16OdP-5" value="&lt;b&gt;&lt;font style=&quot;font-size: 30px&quot;&gt;producto y su&amp;nbsp;cantidad de litros&lt;/font&gt;&lt;/b&gt;" style="text;html=1;strokeColor=none;fillColor=none;align=center;verticalAlign=middle;whiteSpace=wrap;rounded=0;" vertex="1" parent="GbqJbgyvQAJeLsw16OdP-1">
          <mxGeometry x="400" y="130" width="150" height="130" as="geometry" />
        </mxCell>
        <mxCell id="GbqJbgyvQAJeLsw16OdP-6" value="&lt;font style=&quot;font-size: 25px&quot;&gt;$precio&lt;/font&gt;" style="text;html=1;strokeColor=none;fillColor=none;align=center;verticalAlign=middle;whiteSpace=wrap;rounded=0;fontSize=21;" vertex="1" parent="GbqJbgyvQAJeLsw16OdP-1">
          <mxGeometry x="250" y="110" width="130" height="70" as="geometry" />
        </mxCell>
        <mxCell id="GbqJbgyvQAJeLsw16OdP-7" value="&lt;b&gt;&lt;font style=&quot;font-size: 25px&quot;&gt;Comprar&amp;nbsp;&lt;/font&gt;&lt;/b&gt;" style="text;html=1;align=center;verticalAlign=middle;whiteSpace=wrap;rounded=0;fontSize=21;strokeColor=#5E7BA6;fillColor=#007FFF;" vertex="1" parent="GbqJbgyvQAJeLsw16OdP-1">
          <mxGeometry x="420" y="280" width="130" height="50" as="geometry" />
        </mxCell>
        <mxCell id="GbqJbgyvQAJeLsw16OdP-8" value="&lt;b&gt;&lt;font style=&quot;font-size: 25px&quot;&gt;carrito&lt;/font&gt;&lt;/b&gt;" style="text;html=1;strokeColor=#6c8ebf;align=center;verticalAlign=middle;whiteSpace=wrap;rounded=0;fontSize=21;fillColor=#007FFF;" vertex="1" parent="GbqJbgyvQAJeLsw16OdP-1">
          <mxGeometry x="414" y="355" width="136" height="50" as="geometry" />
        </mxCell>
        <mxCell id="GbqJbgyvQAJeLsw16OdP-9" value="&lt;font style=&quot;font-size: 15px&quot;&gt;Graduación alcohólica&amp;nbsp;&lt;br&gt;Características del producto&lt;br&gt;Como es el proceso de creación&amp;nbsp;&lt;/font&gt;" style="text;html=1;strokeColor=none;fillColor=none;align=center;verticalAlign=middle;whiteSpace=wrap;rounded=0;fontSize=21;" vertex="1" parent="GbqJbgyvQAJeLsw16OdP-1">
          <mxGeometry x="238" y="295" width="176" height="145" as="geometry" />
        </mxCell>
      </root>
    </mxGraphModel>
  </diagram>
  <diagram id="GBJSUDj8Fl7SgnSuayLn" name="Page-3">
    <mxGraphModel dx="1422" dy="762" grid="1" gridSize="10" guides="1" tooltips="1" connect="1" arrows="1" fold="1" page="1" pageScale="1" pageWidth="827" pageHeight="1169" math="0" shadow="0">
      <root>
        <mxCell id="jj6JwKZE7chp0CpyBHQX-0" />
        <mxCell id="jj6JwKZE7chp0CpyBHQX-1" parent="jj6JwKZE7chp0CpyBHQX-0" />
        <mxCell id="jj6JwKZE7chp0CpyBHQX-2" value="" style="whiteSpace=wrap;html=1;aspect=fixed;" vertex="1" parent="jj6JwKZE7chp0CpyBHQX-1">
          <mxGeometry x="160" y="120" width="320" height="320" as="geometry" />
        </mxCell>
        <mxCell id="jj6JwKZE7chp0CpyBHQX-3" value="" style="whiteSpace=wrap;html=1;aspect=fixed;" vertex="1" parent="jj6JwKZE7chp0CpyBHQX-1">
          <mxGeometry x="340" y="130" width="130" height="130" as="geometry" />
        </mxCell>
        <mxCell id="jj6JwKZE7chp0CpyBHQX-4" value="&lt;font style=&quot;font-size: 25px&quot;&gt;Imagen&lt;/font&gt;&amp;nbsp;" style="text;html=1;strokeColor=none;fillColor=none;align=center;verticalAlign=middle;whiteSpace=wrap;rounded=0;" vertex="1" parent="jj6JwKZE7chp0CpyBHQX-1">
          <mxGeometry x="357.5" y="170" width="95" height="30" as="geometry" />
        </mxCell>
        <mxCell id="jj6JwKZE7chp0CpyBHQX-5" value="&lt;b&gt;&lt;font style=&quot;font-size: 25px&quot;&gt;producto y su&amp;nbsp;cantidad de litros&lt;/font&gt;&lt;/b&gt;" style="text;html=1;strokeColor=none;fillColor=none;align=center;verticalAlign=middle;whiteSpace=wrap;rounded=0;" vertex="1" parent="jj6JwKZE7chp0CpyBHQX-1">
          <mxGeometry x="130" y="130" width="230" height="80" as="geometry" />
        </mxCell>
        <mxCell id="jj6JwKZE7chp0CpyBHQX-6" value="&lt;font style=&quot;font-size: 25px&quot;&gt;$precio&lt;/font&gt;" style="text;html=1;strokeColor=none;fillColor=none;align=center;verticalAlign=middle;whiteSpace=wrap;rounded=0;fontSize=21;" vertex="1" parent="jj6JwKZE7chp0CpyBHQX-1">
          <mxGeometry x="150" y="220" width="150" height="50" as="geometry" />
        </mxCell>
        <mxCell id="jj6JwKZE7chp0CpyBHQX-7" value="&lt;b&gt;&lt;font style=&quot;font-size: 25px&quot;&gt;Comprar&amp;nbsp;&lt;/font&gt;&lt;/b&gt;" style="text;html=1;align=center;verticalAlign=middle;whiteSpace=wrap;rounded=0;fontSize=21;strokeColor=#5E7BA6;fillColor=#007FFF;" vertex="1" parent="jj6JwKZE7chp0CpyBHQX-1">
          <mxGeometry x="170" y="290" width="120" height="40" as="geometry" />
        </mxCell>
        <mxCell id="jj6JwKZE7chp0CpyBHQX-8" value="&lt;b&gt;&lt;font style=&quot;font-size: 25px&quot;&gt;carrito&lt;/font&gt;&lt;/b&gt;" style="text;html=1;strokeColor=#6c8ebf;align=center;verticalAlign=middle;whiteSpace=wrap;rounded=0;fontSize=21;fillColor=#007FFF;" vertex="1" parent="jj6JwKZE7chp0CpyBHQX-1">
          <mxGeometry x="320" y="290" width="140" height="45" as="geometry" />
        </mxCell>
        <mxCell id="jj6JwKZE7chp0CpyBHQX-9" value="&lt;font style=&quot;font-size: 20px&quot;&gt;Graduación alcohólica&amp;nbsp;&lt;br&gt;Características del producto&lt;br&gt;Como es el proceso de creación&amp;nbsp;&lt;/font&gt;" style="text;html=1;strokeColor=none;fillColor=none;align=center;verticalAlign=middle;whiteSpace=wrap;rounded=0;fontSize=21;" vertex="1" parent="jj6JwKZE7chp0CpyBHQX-1">
          <mxGeometry x="150" y="350" width="330" height="80" as="geometry" />
        </mxCell>
      </root>
    </mxGraphModel>
  </diagram>
</mxfile>
